<mxfile host="65bd71144e">
    <diagram id="ZdiuSufgcu5zRmv83fyd" name="Page-1">
        <mxGraphModel dx="2970" dy="1646" grid="1" gridSize="10" guides="1" tooltips="1" connect="1" arrows="1" fold="1" page="1" pageScale="1" pageWidth="827" pageHeight="1169" background="#ffffff" math="0" shadow="0">
            <root>
                <mxCell id="0"/>
                <mxCell id="1" parent="0"/>
                <mxCell id="AO1ZFHFvSvfR1KMGmUOF-47" style="edgeStyle=none;html=1;entryX=0;entryY=0.5;entryDx=0;entryDy=0;" parent="1" source="AO1ZFHFvSvfR1KMGmUOF-1" target="AO1ZFHFvSvfR1KMGmUOF-5" edge="1">
                    <mxGeometry relative="1" as="geometry"/>
                </mxCell>
                <mxCell id="AO1ZFHFvSvfR1KMGmUOF-48" style="edgeStyle=none;html=1;entryX=0;entryY=0.5;entryDx=0;entryDy=0;" parent="1" source="AO1ZFHFvSvfR1KMGmUOF-1" target="AO1ZFHFvSvfR1KMGmUOF-4" edge="1">
                    <mxGeometry relative="1" as="geometry"/>
                </mxCell>
                <mxCell id="AO1ZFHFvSvfR1KMGmUOF-49" style="edgeStyle=none;html=1;entryX=0;entryY=0.5;entryDx=0;entryDy=0;" parent="1" source="AO1ZFHFvSvfR1KMGmUOF-1" target="AO1ZFHFvSvfR1KMGmUOF-6" edge="1">
                    <mxGeometry relative="1" as="geometry"/>
                </mxCell>
                <mxCell id="AO1ZFHFvSvfR1KMGmUOF-50" style="edgeStyle=none;html=1;entryX=0;entryY=0.5;entryDx=0;entryDy=0;" parent="1" source="AO1ZFHFvSvfR1KMGmUOF-1" target="AO1ZFHFvSvfR1KMGmUOF-10" edge="1">
                    <mxGeometry relative="1" as="geometry"/>
                </mxCell>
                <mxCell id="AO1ZFHFvSvfR1KMGmUOF-1" value="Candidat" style="shape=umlActor;verticalLabelPosition=bottom;verticalAlign=top;html=1;" parent="1" vertex="1">
                    <mxGeometry x="20" y="124" width="30" height="60" as="geometry"/>
                </mxCell>
                <mxCell id="AO1ZFHFvSvfR1KMGmUOF-2" value="Système YouCode" style="shape=umlFrame;whiteSpace=wrap;html=1;width=240;height=30;" parent="1" vertex="1">
                    <mxGeometry x="110" y="10" width="850" height="1240" as="geometry"/>
                </mxCell>
                <mxCell id="AO1ZFHFvSvfR1KMGmUOF-4" value="Test en ligne" style="ellipse;whiteSpace=wrap;html=1;" parent="1" vertex="1">
                    <mxGeometry x="160" y="280" width="140" height="70" as="geometry"/>
                </mxCell>
                <mxCell id="AO1ZFHFvSvfR1KMGmUOF-5" value="Candidature" style="ellipse;whiteSpace=wrap;html=1;" parent="1" vertex="1">
                    <mxGeometry x="160" y="120" width="140" height="70" as="geometry"/>
                </mxCell>
                <mxCell id="AO1ZFHFvSvfR1KMGmUOF-6" value="Sourcing" style="ellipse;whiteSpace=wrap;html=1;" parent="1" vertex="1">
                    <mxGeometry x="160" y="440" width="140" height="70" as="geometry"/>
                </mxCell>
                <mxCell id="AO1ZFHFvSvfR1KMGmUOF-7" value="Entretien technique" style="ellipse;whiteSpace=wrap;html=1;" parent="1" vertex="1">
                    <mxGeometry x="465" y="440" width="140" height="70" as="geometry"/>
                </mxCell>
                <mxCell id="AO1ZFHFvSvfR1KMGmUOF-8" value="Entretien motivation" style="ellipse;whiteSpace=wrap;html=1;" parent="1" vertex="1">
                    <mxGeometry x="465" y="340" width="140" height="70" as="geometry"/>
                </mxCell>
                <mxCell id="AO1ZFHFvSvfR1KMGmUOF-9" value="Serious game" style="ellipse;whiteSpace=wrap;html=1;" parent="1" vertex="1">
                    <mxGeometry x="465" y="540" width="140" height="70" as="geometry"/>
                </mxCell>
                <mxCell id="AO1ZFHFvSvfR1KMGmUOF-10" value="Période SAS" style="ellipse;whiteSpace=wrap;html=1;" parent="1" vertex="1">
                    <mxGeometry x="160" y="660" width="140" height="70" as="geometry"/>
                </mxCell>
                <mxCell id="AO1ZFHFvSvfR1KMGmUOF-11" value="Formation" style="ellipse;whiteSpace=wrap;html=1;" parent="1" vertex="1">
                    <mxGeometry x="160" y="880" width="140" height="70" as="geometry"/>
                </mxCell>
                <mxCell id="AO1ZFHFvSvfR1KMGmUOF-12" value="Sujets de veille" style="ellipse;whiteSpace=wrap;html=1;" parent="1" vertex="1">
                    <mxGeometry x="470" y="730" width="140" height="70" as="geometry"/>
                </mxCell>
                <mxCell id="AO1ZFHFvSvfR1KMGmUOF-13" value="Briefs projets" style="ellipse;whiteSpace=wrap;html=1;" parent="1" vertex="1">
                    <mxGeometry x="470" y="830" width="140" height="70" as="geometry"/>
                </mxCell>
                <mxCell id="AO1ZFHFvSvfR1KMGmUOF-14" value="Projet Fil-rouge" style="ellipse;whiteSpace=wrap;html=1;" parent="1" vertex="1">
                    <mxGeometry x="470" y="930" width="140" height="70" as="geometry"/>
                </mxCell>
                <mxCell id="AO1ZFHFvSvfR1KMGmUOF-15" value="Stage" style="ellipse;whiteSpace=wrap;html=1;" parent="1" vertex="1">
                    <mxGeometry x="470" y="1030" width="140" height="70" as="geometry"/>
                </mxCell>
                <mxCell id="AO1ZFHFvSvfR1KMGmUOF-20" value="Certification" style="ellipse;whiteSpace=wrap;html=1;" parent="1" vertex="1">
                    <mxGeometry x="160" y="1120" width="140" height="70" as="geometry"/>
                </mxCell>
                <mxCell id="AO1ZFHFvSvfR1KMGmUOF-22" value="Ouverture d'insription" style="ellipse;whiteSpace=wrap;html=1;" parent="1" vertex="1">
                    <mxGeometry x="760" y="120" width="140" height="70" as="geometry"/>
                </mxCell>
                <mxCell id="AO1ZFHFvSvfR1KMGmUOF-26" value="&amp;lt;&amp;lt;include&amp;gt;&amp;gt;" style="html=1;verticalAlign=bottom;labelBackgroundColor=none;endArrow=open;endFill=0;dashed=1;exitX=1;exitY=0.5;exitDx=0;exitDy=0;entryX=0;entryY=0.5;entryDx=0;entryDy=0;" parent="1" source="AO1ZFHFvSvfR1KMGmUOF-5" target="AO1ZFHFvSvfR1KMGmUOF-22" edge="1">
                    <mxGeometry width="160" relative="1" as="geometry">
                        <mxPoint x="540" y="150" as="sourcePoint"/>
                        <mxPoint x="700" y="150" as="targetPoint"/>
                    </mxGeometry>
                </mxCell>
                <mxCell id="AO1ZFHFvSvfR1KMGmUOF-27" value="&amp;lt;&amp;lt;include&amp;gt;&amp;gt;" style="html=1;verticalAlign=bottom;labelBackgroundColor=none;endArrow=open;endFill=0;dashed=1;exitX=0.5;exitY=0;exitDx=0;exitDy=0;entryX=0.5;entryY=1;entryDx=0;entryDy=0;" parent="1" source="AO1ZFHFvSvfR1KMGmUOF-4" target="AO1ZFHFvSvfR1KMGmUOF-5" edge="1">
                    <mxGeometry width="160" relative="1" as="geometry">
                        <mxPoint x="299.99999999999955" y="170" as="sourcePoint"/>
                        <mxPoint x="410.00000000000045" y="90" as="targetPoint"/>
                    </mxGeometry>
                </mxCell>
                <mxCell id="AO1ZFHFvSvfR1KMGmUOF-28" value="&amp;lt;&amp;lt;include&amp;gt;&amp;gt;" style="html=1;verticalAlign=bottom;labelBackgroundColor=none;endArrow=open;endFill=0;dashed=1;exitX=0.5;exitY=0;exitDx=0;exitDy=0;entryX=0.5;entryY=1;entryDx=0;entryDy=0;" parent="1" source="AO1ZFHFvSvfR1KMGmUOF-6" target="AO1ZFHFvSvfR1KMGmUOF-4" edge="1">
                    <mxGeometry width="160" relative="1" as="geometry">
                        <mxPoint x="290.0000000000016" y="270" as="sourcePoint"/>
                        <mxPoint x="390.00000000000045" y="220" as="targetPoint"/>
                    </mxGeometry>
                </mxCell>
                <mxCell id="AO1ZFHFvSvfR1KMGmUOF-29" value="&amp;lt;&amp;lt;include&amp;gt;&amp;gt;" style="html=1;verticalAlign=bottom;labelBackgroundColor=none;endArrow=open;endFill=0;dashed=1;exitX=1;exitY=0.5;exitDx=0;exitDy=0;" parent="1" source="AO1ZFHFvSvfR1KMGmUOF-6" target="AO1ZFHFvSvfR1KMGmUOF-7" edge="1">
                    <mxGeometry width="160" relative="1" as="geometry">
                        <mxPoint x="340" y="440" as="sourcePoint"/>
                        <mxPoint x="340" y="350" as="targetPoint"/>
                    </mxGeometry>
                </mxCell>
                <mxCell id="AO1ZFHFvSvfR1KMGmUOF-30" value="&amp;lt;&amp;lt;include&amp;gt;&amp;gt;" style="html=1;verticalAlign=bottom;labelBackgroundColor=none;endArrow=open;endFill=0;dashed=1;exitX=1;exitY=0.5;exitDx=0;exitDy=0;entryX=0;entryY=0.5;entryDx=0;entryDy=0;" parent="1" source="AO1ZFHFvSvfR1KMGmUOF-6" target="AO1ZFHFvSvfR1KMGmUOF-8" edge="1">
                    <mxGeometry width="160" relative="1" as="geometry">
                        <mxPoint x="300.0000000000016" y="440" as="sourcePoint"/>
                        <mxPoint x="414.0000000000002" y="440" as="targetPoint"/>
                    </mxGeometry>
                </mxCell>
                <mxCell id="AO1ZFHFvSvfR1KMGmUOF-31" value="&amp;lt;&amp;lt;include&amp;gt;&amp;gt;" style="html=1;verticalAlign=bottom;labelBackgroundColor=none;endArrow=open;endFill=0;dashed=1;entryX=0;entryY=0.5;entryDx=0;entryDy=0;exitX=1;exitY=0.5;exitDx=0;exitDy=0;" parent="1" source="AO1ZFHFvSvfR1KMGmUOF-6" target="AO1ZFHFvSvfR1KMGmUOF-9" edge="1">
                    <mxGeometry width="160" relative="1" as="geometry">
                        <mxPoint x="300" y="470" as="sourcePoint"/>
                        <mxPoint x="414.0000000000002" y="480" as="targetPoint"/>
                    </mxGeometry>
                </mxCell>
                <mxCell id="AO1ZFHFvSvfR1KMGmUOF-32" value="&amp;lt;&amp;lt;include&amp;gt;&amp;gt;" style="html=1;verticalAlign=bottom;labelBackgroundColor=none;endArrow=open;endFill=0;dashed=1;exitX=0.5;exitY=0;exitDx=0;exitDy=0;entryX=0.5;entryY=1;entryDx=0;entryDy=0;" parent="1" source="AO1ZFHFvSvfR1KMGmUOF-10" target="AO1ZFHFvSvfR1KMGmUOF-6" edge="1">
                    <mxGeometry width="160" relative="1" as="geometry">
                        <mxPoint x="240" y="640" as="sourcePoint"/>
                        <mxPoint x="240" y="550" as="targetPoint"/>
                    </mxGeometry>
                </mxCell>
                <mxCell id="AO1ZFHFvSvfR1KMGmUOF-33" value="&amp;lt;&amp;lt;include&amp;gt;&amp;gt;" style="html=1;verticalAlign=bottom;labelBackgroundColor=none;endArrow=open;endFill=0;dashed=1;exitX=0.5;exitY=0;exitDx=0;exitDy=0;entryX=0.497;entryY=1.077;entryDx=0;entryDy=0;entryPerimeter=0;" parent="1" source="AO1ZFHFvSvfR1KMGmUOF-11" target="AO1ZFHFvSvfR1KMGmUOF-10" edge="1">
                    <mxGeometry width="160" relative="1" as="geometry">
                        <mxPoint x="300" y="890" as="sourcePoint"/>
                        <mxPoint x="300" y="730" as="targetPoint"/>
                    </mxGeometry>
                </mxCell>
                <mxCell id="AO1ZFHFvSvfR1KMGmUOF-53" style="edgeStyle=none;html=1;entryX=1;entryY=0.5;entryDx=0;entryDy=0;" parent="1" source="AO1ZFHFvSvfR1KMGmUOF-34" target="AO1ZFHFvSvfR1KMGmUOF-7" edge="1">
                    <mxGeometry relative="1" as="geometry"/>
                </mxCell>
                <mxCell id="AO1ZFHFvSvfR1KMGmUOF-60" style="edgeStyle=none;html=1;entryX=1;entryY=0.5;entryDx=0;entryDy=0;" parent="1" source="AO1ZFHFvSvfR1KMGmUOF-34" target="AO1ZFHFvSvfR1KMGmUOF-56" edge="1">
                    <mxGeometry relative="1" as="geometry"/>
                </mxCell>
                <mxCell id="AO1ZFHFvSvfR1KMGmUOF-66" style="edgeStyle=none;html=1;entryX=1;entryY=0.5;entryDx=0;entryDy=0;" parent="1" source="AO1ZFHFvSvfR1KMGmUOF-34" target="AO1ZFHFvSvfR1KMGmUOF-64" edge="1">
                    <mxGeometry relative="1" as="geometry"/>
                </mxCell>
                <mxCell id="AO1ZFHFvSvfR1KMGmUOF-67" style="edgeStyle=none;html=1;entryX=1;entryY=0.5;entryDx=0;entryDy=0;" parent="1" source="AO1ZFHFvSvfR1KMGmUOF-34" target="AO1ZFHFvSvfR1KMGmUOF-57" edge="1">
                    <mxGeometry relative="1" as="geometry"/>
                </mxCell>
                <mxCell id="AO1ZFHFvSvfR1KMGmUOF-34" value="Formateur" style="shape=umlActor;verticalLabelPosition=bottom;verticalAlign=top;html=1;" parent="1" vertex="1">
                    <mxGeometry x="1010" y="590" width="30" height="60" as="geometry"/>
                </mxCell>
                <mxCell id="AO1ZFHFvSvfR1KMGmUOF-45" style="edgeStyle=none;html=1;entryX=0;entryY=0.5;entryDx=0;entryDy=0;" parent="1" source="AO1ZFHFvSvfR1KMGmUOF-36" target="AO1ZFHFvSvfR1KMGmUOF-11" edge="1">
                    <mxGeometry relative="1" as="geometry"/>
                </mxCell>
                <mxCell id="AO1ZFHFvSvfR1KMGmUOF-46" style="edgeStyle=none;html=1;entryX=0;entryY=0.5;entryDx=0;entryDy=0;" parent="1" source="AO1ZFHFvSvfR1KMGmUOF-36" target="AO1ZFHFvSvfR1KMGmUOF-20" edge="1">
                    <mxGeometry relative="1" as="geometry"/>
                </mxCell>
                <mxCell id="AO1ZFHFvSvfR1KMGmUOF-36" value="Apprenant" style="shape=umlActor;verticalLabelPosition=bottom;verticalAlign=top;html=1;" parent="1" vertex="1">
                    <mxGeometry x="20" y="886" width="30" height="60" as="geometry"/>
                </mxCell>
                <mxCell id="AO1ZFHFvSvfR1KMGmUOF-39" value="&amp;lt;&amp;lt;include&amp;gt;&amp;gt;" style="html=1;verticalAlign=bottom;labelBackgroundColor=none;endArrow=open;endFill=0;dashed=1;entryX=0;entryY=0.5;entryDx=0;entryDy=0;exitX=1;exitY=0.5;exitDx=0;exitDy=0;" parent="1" source="AO1ZFHFvSvfR1KMGmUOF-11" target="AO1ZFHFvSvfR1KMGmUOF-13" edge="1">
                    <mxGeometry width="160" relative="1" as="geometry">
                        <mxPoint x="320" y="910" as="sourcePoint"/>
                        <mxPoint x="420" y="910" as="targetPoint"/>
                    </mxGeometry>
                </mxCell>
                <mxCell id="AO1ZFHFvSvfR1KMGmUOF-40" value="&amp;lt;&amp;lt;include&amp;gt;&amp;gt;" style="html=1;verticalAlign=bottom;labelBackgroundColor=none;endArrow=open;endFill=0;dashed=1;entryX=0;entryY=0.5;entryDx=0;entryDy=0;exitX=1;exitY=0.5;exitDx=0;exitDy=0;" parent="1" source="AO1ZFHFvSvfR1KMGmUOF-11" target="AO1ZFHFvSvfR1KMGmUOF-14" edge="1">
                    <mxGeometry width="160" relative="1" as="geometry">
                        <mxPoint x="250" y="1030" as="sourcePoint"/>
                        <mxPoint x="370" y="980" as="targetPoint"/>
                    </mxGeometry>
                </mxCell>
                <mxCell id="AO1ZFHFvSvfR1KMGmUOF-41" value="&amp;lt;&amp;lt;include&amp;gt;&amp;gt;" style="html=1;verticalAlign=bottom;labelBackgroundColor=none;endArrow=open;endFill=0;dashed=1;entryX=0;entryY=0.5;entryDx=0;entryDy=0;exitX=1;exitY=0.5;exitDx=0;exitDy=0;" parent="1" source="AO1ZFHFvSvfR1KMGmUOF-11" target="AO1ZFHFvSvfR1KMGmUOF-15" edge="1">
                    <mxGeometry width="160" relative="1" as="geometry">
                        <mxPoint x="300" y="920" as="sourcePoint"/>
                        <mxPoint x="390" y="1020" as="targetPoint"/>
                    </mxGeometry>
                </mxCell>
                <mxCell id="AO1ZFHFvSvfR1KMGmUOF-42" value="&amp;lt;&amp;lt;include&amp;gt;&amp;gt;" style="html=1;verticalAlign=bottom;labelBackgroundColor=none;endArrow=open;endFill=0;dashed=1;entryX=0;entryY=0.5;entryDx=0;entryDy=0;" parent="1" target="AO1ZFHFvSvfR1KMGmUOF-12" edge="1">
                    <mxGeometry width="160" relative="1" as="geometry">
                        <mxPoint x="300" y="914" as="sourcePoint"/>
                        <mxPoint x="420" y="740" as="targetPoint"/>
                    </mxGeometry>
                </mxCell>
                <mxCell id="AO1ZFHFvSvfR1KMGmUOF-43" value="&amp;lt;&amp;lt;include&amp;gt;&amp;gt;" style="html=1;verticalAlign=bottom;labelBackgroundColor=none;endArrow=open;endFill=0;dashed=1;exitX=0.5;exitY=0;exitDx=0;exitDy=0;entryX=0.5;entryY=1;entryDx=0;entryDy=0;" parent="1" source="AO1ZFHFvSvfR1KMGmUOF-20" target="AO1ZFHFvSvfR1KMGmUOF-11" edge="1">
                    <mxGeometry width="160" relative="1" as="geometry">
                        <mxPoint x="230" y="1114.6100000000001" as="sourcePoint"/>
                        <mxPoint x="229.58000000000015" y="980.0000000000001" as="targetPoint"/>
                    </mxGeometry>
                </mxCell>
                <mxCell id="AO1ZFHFvSvfR1KMGmUOF-52" style="edgeStyle=none;html=1;entryX=1;entryY=0.5;entryDx=0;entryDy=0;" parent="1" source="AO1ZFHFvSvfR1KMGmUOF-51" target="AO1ZFHFvSvfR1KMGmUOF-22" edge="1">
                    <mxGeometry relative="1" as="geometry"/>
                </mxCell>
                <mxCell id="AO1ZFHFvSvfR1KMGmUOF-54" style="edgeStyle=none;html=1;entryX=1;entryY=0.5;entryDx=0;entryDy=0;" parent="1" source="AO1ZFHFvSvfR1KMGmUOF-51" target="AO1ZFHFvSvfR1KMGmUOF-8" edge="1">
                    <mxGeometry relative="1" as="geometry"/>
                </mxCell>
                <mxCell id="AO1ZFHFvSvfR1KMGmUOF-55" style="edgeStyle=none;html=1;entryX=1;entryY=0.5;entryDx=0;entryDy=0;" parent="1" source="AO1ZFHFvSvfR1KMGmUOF-51" target="AO1ZFHFvSvfR1KMGmUOF-9" edge="1">
                    <mxGeometry relative="1" as="geometry"/>
                </mxCell>
                <mxCell id="AO1ZFHFvSvfR1KMGmUOF-68" style="edgeStyle=none;html=1;entryX=1;entryY=0.5;entryDx=0;entryDy=0;" parent="1" source="AO1ZFHFvSvfR1KMGmUOF-51" target="AO1ZFHFvSvfR1KMGmUOF-57" edge="1">
                    <mxGeometry relative="1" as="geometry"/>
                </mxCell>
                <mxCell id="AO1ZFHFvSvfR1KMGmUOF-51" value="Staff" style="shape=umlActor;verticalLabelPosition=bottom;verticalAlign=top;html=1;" parent="1" vertex="1">
                    <mxGeometry x="1010" y="125" width="30" height="60" as="geometry"/>
                </mxCell>
                <mxCell id="AO1ZFHFvSvfR1KMGmUOF-56" value="Validation" style="ellipse;whiteSpace=wrap;html=1;" parent="1" vertex="1">
                    <mxGeometry x="760" y="660" width="140" height="70" as="geometry"/>
                </mxCell>
                <mxCell id="AO1ZFHFvSvfR1KMGmUOF-57" value="Soutenance" style="ellipse;whiteSpace=wrap;html=1;" parent="1" vertex="1">
                    <mxGeometry x="760" y="930" width="140" height="70" as="geometry"/>
                </mxCell>
                <mxCell id="AO1ZFHFvSvfR1KMGmUOF-58" value="&amp;lt;&amp;lt;include&amp;gt;&amp;gt;" style="html=1;verticalAlign=bottom;labelBackgroundColor=none;endArrow=open;endFill=0;dashed=1;exitX=1;exitY=0.5;exitDx=0;exitDy=0;entryX=0;entryY=0.5;entryDx=0;entryDy=0;" parent="1" source="AO1ZFHFvSvfR1KMGmUOF-14" target="AO1ZFHFvSvfR1KMGmUOF-57" edge="1">
                    <mxGeometry width="160" relative="1" as="geometry">
                        <mxPoint x="556.000000000003" y="929.17" as="sourcePoint"/>
                        <mxPoint x="669.9999999999998" y="929.17" as="targetPoint"/>
                    </mxGeometry>
                </mxCell>
                <mxCell id="AO1ZFHFvSvfR1KMGmUOF-59" value="&amp;lt;&amp;lt;include&amp;gt;&amp;gt;" style="html=1;verticalAlign=bottom;labelBackgroundColor=none;endArrow=open;endFill=0;dashed=1;entryX=0;entryY=0.5;entryDx=0;entryDy=0;exitX=1;exitY=0.5;exitDx=0;exitDy=0;" parent="1" source="AO1ZFHFvSvfR1KMGmUOF-13" target="AO1ZFHFvSvfR1KMGmUOF-56" edge="1">
                    <mxGeometry width="160" relative="1" as="geometry">
                        <mxPoint x="560" y="860" as="sourcePoint"/>
                        <mxPoint x="669.999999999997" y="860" as="targetPoint"/>
                    </mxGeometry>
                </mxCell>
                <mxCell id="AO1ZFHFvSvfR1KMGmUOF-63" value="&amp;lt;&amp;lt;include&amp;gt;&amp;gt;" style="html=1;verticalAlign=bottom;labelBackgroundColor=none;endArrow=open;endFill=0;dashed=1;exitX=1;exitY=0.5;exitDx=0;exitDy=0;entryX=0;entryY=0.5;entryDx=0;entryDy=0;" parent="1" source="AO1ZFHFvSvfR1KMGmUOF-10" edge="1" target="AO1ZFHFvSvfR1KMGmUOF-56">
                    <mxGeometry width="160" relative="1" as="geometry">
                        <mxPoint x="321.9999999999991" y="694.66" as="sourcePoint"/>
                        <mxPoint x="700" y="695" as="targetPoint"/>
                    </mxGeometry>
                </mxCell>
                <mxCell id="AO1ZFHFvSvfR1KMGmUOF-64" value="Suivi" style="ellipse;whiteSpace=wrap;html=1;" parent="1" vertex="1">
                    <mxGeometry x="760" y="1030" width="140" height="70" as="geometry"/>
                </mxCell>
                <mxCell id="AO1ZFHFvSvfR1KMGmUOF-65" value="&amp;lt;&amp;lt;include&amp;gt;&amp;gt;" style="html=1;verticalAlign=bottom;labelBackgroundColor=none;endArrow=open;endFill=0;dashed=1;entryX=0;entryY=0.5;entryDx=0;entryDy=0;exitX=1;exitY=0.5;exitDx=0;exitDy=0;" parent="1" source="AO1ZFHFvSvfR1KMGmUOF-15" target="AO1ZFHFvSvfR1KMGmUOF-64" edge="1">
                    <mxGeometry width="160" relative="1" as="geometry">
                        <mxPoint x="560" y="1070" as="sourcePoint"/>
                        <mxPoint x="700.0000000000043" y="1030" as="targetPoint"/>
                    </mxGeometry>
                </mxCell>
            </root>
        </mxGraphModel>
    </diagram>
</mxfile>